<mxfile host="app.diagrams.net" modified="2021-04-26T04:54:50.719Z" agent="5.0 (Windows NT 10.0; Win64; x64) AppleWebKit/537.36 (KHTML, like Gecko) Chrome/90.0.4430.85 Safari/537.36" etag="TvV2AcKfcdVKZTq61w4N" version="14.6.6" type="github">
  <diagram id="FSKANe6fov6a1rtxqF-H" name="Page-1">
    <mxGraphModel dx="902" dy="1160" grid="1" gridSize="10" guides="1" tooltips="1" connect="1" arrows="1" fold="1" page="1" pageScale="1" pageWidth="850" pageHeight="1100" math="0" shadow="0">
      <root>
        <mxCell id="0" />
        <mxCell id="1" parent="0" />
        <mxCell id="l3C3RVE9r9DIr2IfnVeB-6" value="" style="whiteSpace=wrap;html=1;shadow=0;rounded=1;" parent="1" vertex="1">
          <mxGeometry x="70" y="110" width="670" height="570" as="geometry" />
        </mxCell>
        <mxCell id="l3C3RVE9r9DIr2IfnVeB-1" value="" style="whiteSpace=wrap;html=1;rounded=1;" parent="1" vertex="1">
          <mxGeometry x="80" y="100" width="650" height="550" as="geometry" />
        </mxCell>
        <mxCell id="l3C3RVE9r9DIr2IfnVeB-2" value="" style="whiteSpace=wrap;html=1;rounded=1;" parent="1" vertex="1">
          <mxGeometry x="180" y="190" width="450" height="310" as="geometry" />
        </mxCell>
        <mxCell id="l3C3RVE9r9DIr2IfnVeB-3" value="" style="whiteSpace=wrap;html=1;shadow=0;rounded=1;aspect=fixed;" parent="1" vertex="1">
          <mxGeometry x="185" y="200" width="440" height="296.74" as="geometry" />
        </mxCell>
        <mxCell id="l3C3RVE9r9DIr2IfnVeB-5" value="" style="ellipse;whiteSpace=wrap;html=1;aspect=fixed;shadow=0;rounded=1;" parent="1" vertex="1">
          <mxGeometry x="90" y="520" width="130" height="130" as="geometry" />
        </mxCell>
        <mxCell id="l3C3RVE9r9DIr2IfnVeB-8" value="" style="ellipse;whiteSpace=wrap;html=1;aspect=fixed;shadow=0;rounded=1;" parent="1" vertex="1">
          <mxGeometry x="580" y="520" width="130" height="130" as="geometry" />
        </mxCell>
        <mxCell id="l3C3RVE9r9DIr2IfnVeB-13" value="" style="ellipse;whiteSpace=wrap;html=1;rounded=1;shadow=0;strokeWidth=1;" parent="1" vertex="1">
          <mxGeometry x="95" y="520" width="120" height="120" as="geometry" />
        </mxCell>
        <mxCell id="l3C3RVE9r9DIr2IfnVeB-15" value="" style="ellipse;whiteSpace=wrap;html=1;rounded=1;shadow=0;strokeWidth=1;" parent="1" vertex="1">
          <mxGeometry x="585" y="520" width="120" height="120" as="geometry" />
        </mxCell>
      </root>
    </mxGraphModel>
  </diagram>
</mxfile>
